<svg data-v-6805eed4="" version="1.0" xmlns="http://www.w3.org/2000/svg" xmlns:xlink="http://www.w3.org/1999/xlink" width="100%" height="100%" viewBox="0 0 340.000000 250.000000" preserveAspectRatio="xMidYMid meet" color-interpolation-filters="sRGB" style="margin: auto;">   <g data-v-6805eed4="" fill="#F0D45B" class="basesvg" transform="translate(45.63500213623047,105.82499885559082)"><g fill-rule="" class="tp-name"><g transform="scale(1)"><g><g fill="#ff0050" data-gra-ignore="true" transform="translate(1.5, 1.5)"><path d="M12.31 1.59L1.28 1.59 5.43-32.43 10.5-32.43 9.36-22.99 15.4-22.99Q19.99-22.99 22.28-20.87 24.58-18.75 24.58-14.61L24.58-14.61Q24.58-13.55 24.45-12.4L24.45-12.4 24.05-9.05Q22.77 1.59 12.31 1.59L12.31 1.59ZM6.93-3.13L12.89-3.13Q18.18-3.13 18.89-8.91L18.89-8.91 19.33-12.53Q19.42-13.41 19.42-13.77L19.42-13.77Q19.42-18.27 14.83-18.27L14.83-18.27 8.78-18.27 6.93-3.13ZM35.58-26.3L29.8-26.3 30.46-31.6 36.24-31.6 35.58-26.3ZM34.88-22.99L31.83 1.59 26.76 1.59 29.8-22.99 34.88-22.99ZM41.77 1.59L36.7 1.59 40.85-32.43 45.92-32.43 41.77 1.59ZM51.59 1.59L46.51 1.59 50.66-32.43 55.73-32.43 51.59 1.59ZM56.72-9L57.12-12.36Q58.4-22.99 68.5-22.99L68.5-22.99 74.28-22.99 75.43-32.43 80.5-32.43 76.36 1.59 65.72 1.59Q56.59 1.59 56.59-6.8L56.59-6.8Q56.59-7.81 56.72-9L56.72-9ZM66.29-3.13L71.85-3.13 73.71-18.36 67.93-18.36Q62.94-18.36 62.24-12.49L62.24-12.49 61.79-8.87Q61.71-7.99 61.71-7.59L61.71-7.59Q61.71-3.13 66.29-3.13L66.29-3.13ZM120.45-31.64L120.01-28.02 104.83-28.02 104.39-25.24 112.64-25.24Q114.63-25.24 115.6-24.27 116.57-23.3 116.35-21.36L116.35-21.36 113.88-1.06 119.66-1.06 119.26 2.52 82.02 2.52 82.42-1.06 86.96-1.06 89.43-21.58Q89.65-23.26 90.67-24.25 91.68-25.24 93.36-25.24L93.36-25.24 100.02-25.24 100.46-28.02 86.34-28.02 86.78-31.64 101.08-31.64 101.66-34.95 106.02-34.95 105.45-31.64 120.45-31.64ZM111.76-19.11L112.07-21.71 93.67-21.71 93.36-19.11 111.76-19.11ZM111.1-13.06L111.41-15.8 92.96-15.8 92.65-13.06 111.1-13.06ZM110.48-7.06L110.75-9.8 92.26-9.8 91.9-7.06 110.48-7.06ZM109.82-1.06L110.13-3.79 91.55-3.79 91.2-1.06 109.82-1.06ZM129.96 3.18Q127.35 3 125.23 1.9L125.23 1.9 125.72-2.07Q126.96-1.5 128.63-1.01L128.63-1.01 128.99-0.93Q129.21-0.93 129.29-1.08 129.38-1.24 129.47-1.63L129.47-1.63 130.62-11.52 125.9-10.19 126.47-14.56Q128.72-15 131.15-15.75L131.15-15.75 132.12-24.05 127.44-24.05 127.93-27.84 132.56-27.84 133.4-34.77 137.41-34.77 136.58-27.84 140.11-27.84 139.66-24.05 136.13-24.05 135.3-17.03Q135.78-17.21 136.24-17.36 136.71-17.52 137.11-17.65L137.11-17.65 139-18.31 138.78-16.33Q143.37-18.58 146.59-21.31L146.59-21.31 140.24-21.31 140.64-24.67 144.78-24.67 143.5-27.84 147.3-27.84 148.53-24.67 150.52-24.67 151.05-29.17Q147.87-28.95 141.83-28.68L141.83-28.68 142.27-32.26Q153.39-32.74 163.8-33.8L163.8-33.8 163.4-30.09Q160.58-29.83 159.21-29.74L159.21-29.74 154.98-29.39 154.45-24.67 156.3-24.67 158.15-28.37 162.08-28.37 160.23-24.67 164.42-24.67 164.02-21.31 157.4-21.31Q160.98-18.31 165.3-15.71L165.3-15.71 162.57-13.11Q158.11-16.11 153.96-20.56L153.96-20.56 153.3-15.09 149.46-15.09 150.03-20.34Q146.06-16.19 140.37-13.28L140.37-13.28 138.61-14.87 138.52-14.03Q137.24-13.55 134.77-12.75L134.77-12.75 133.31-0.31Q133.09 1.41 132.23 2.34 131.37 3.27 129.96 3.18L129.96 3.18ZM161.73-10.15L160.36 2.87 138.61 2.87 140.33-11.12Q140.5-12.49 141.43-13.28 142.36-14.08 143.77-14.08L143.77-14.08 158.6-14.08Q160.14-14.08 160.96-13.26 161.77-12.44 161.77-10.9L161.77-10.9Q161.77-10.41 161.73-10.15L161.73-10.15ZM148.71-7.33L149.06-10.63 143.9-10.63 143.5-7.33 148.71-7.33ZM152.28-7.33L157.58-7.33 157.93-10.63 152.59-10.63 152.28-7.33ZM148-0.57L148.36-4.15 143.15-4.15 142.75-0.57 148-0.57ZM157.23-4.15L151.93-4.15 151.58-0.57 156.83-0.57 157.23-4.15ZM178.64-23.48L206.97-23.48 206.49-19.37 178.11-19.37 177.19-12.18Q176.48-7.19 175.51-3.51 174.54 0.18 172.82 3.4L172.82 3.4 168.63 2.12Q170.35-1.41 171.36-4.68L171.36-4.68Q172.29-7.85 172.82-12.49L172.82-12.49 174.76-28.2Q174.98-30.32 175.71-31.18 176.44-32.04 178.25-32.12L178.25-32.12Q180.54-32.26 181.42-32.35L181.42-32.35 186.06-32.65Q191.35-33.01 197-33.49L197-33.49 205.43-34.24 204.77-29.96Q202.6-29.74 197.57-29.39L197.57-29.39 187.34-28.64 182.7-28.29 179.22-28.07 178.64-23.48ZM203.53-9.97L202.12 2.34 178.86 2.34 180.45-10.5Q180.67-12.89 181.8-13.9 182.92-14.92 185.17-14.92L185.17-14.92 199.38-14.92Q201.41-14.92 202.49-13.86 203.58-12.8 203.58-10.86L203.58-10.86Q203.58-10.28 203.53-9.97L203.53-9.97ZM184.91-10.99L183.89-1.63 198.15-1.63 199.12-10.99 184.91-10.99ZM245.07-17.34L244.06-19.37Q231.57-18.45 218.51-18.22L218.51-18.22Q216.96-18.22 216.1-18.8 215.24-19.37 215.24-20.39L215.24-20.39Q215.24-21.71 216.78-23.12L216.78-23.12Q223.8-29.79 228.13-34.95L228.13-34.95 233.86-34.95Q228.61-28.33 222.04-22.37L222.04-22.37Q230.2-22.42 242.11-23.34L242.11-23.34 238.36-31.07 243.04-31.07 250.01-17.34 245.07-17.34ZM246-10.46L244.5 2.6 215.46 2.6 217.09-10.41Q217.53-14.43 221.42-14.43L221.42-14.43 242.51-14.43Q246.04-14.43 246.04-11.25L246.04-11.25Q246.04-10.72 246-10.46L246-10.46ZM221.64-10.55L220.49-1.46 240.26-1.46 241.36-10.55 221.64-10.55Z" transform="translate(-1.2799999713897705, 34.95000076293945)"></path></g><g fill="#00faf0" data-gra-ignore="true" transform="translate(-1.5, -1.5)"><path d="M12.31 1.59L1.28 1.59 5.43-32.43 10.5-32.43 9.36-22.99 15.4-22.99Q19.99-22.99 22.28-20.87 24.58-18.75 24.58-14.61L24.58-14.61Q24.58-13.55 24.45-12.4L24.45-12.4 24.05-9.05Q22.77 1.59 12.31 1.59L12.31 1.59ZM6.93-3.13L12.89-3.13Q18.18-3.13 18.89-8.91L18.89-8.91 19.33-12.53Q19.42-13.41 19.42-13.77L19.42-13.77Q19.42-18.27 14.83-18.27L14.83-18.27 8.78-18.27 6.93-3.13ZM35.58-26.3L29.8-26.3 30.46-31.6 36.24-31.6 35.58-26.3ZM34.88-22.99L31.83 1.59 26.76 1.59 29.8-22.99 34.88-22.99ZM41.77 1.59L36.7 1.59 40.85-32.43 45.92-32.43 41.77 1.59ZM51.59 1.59L46.51 1.59 50.66-32.43 55.73-32.43 51.59 1.59ZM56.72-9L57.12-12.36Q58.4-22.99 68.5-22.99L68.5-22.99 74.28-22.99 75.43-32.43 80.5-32.43 76.36 1.59 65.72 1.59Q56.59 1.59 56.59-6.8L56.59-6.8Q56.59-7.81 56.72-9L56.72-9ZM66.29-3.13L71.85-3.13 73.71-18.36 67.93-18.36Q62.94-18.36 62.24-12.49L62.24-12.49 61.79-8.87Q61.71-7.99 61.71-7.59L61.71-7.59Q61.71-3.13 66.29-3.13L66.29-3.13ZM120.45-31.64L120.01-28.02 104.83-28.02 104.39-25.24 112.64-25.24Q114.63-25.24 115.6-24.27 116.57-23.3 116.35-21.36L116.35-21.36 113.88-1.06 119.66-1.06 119.26 2.52 82.02 2.52 82.42-1.06 86.96-1.06 89.43-21.58Q89.65-23.26 90.67-24.25 91.68-25.24 93.36-25.24L93.36-25.24 100.02-25.24 100.46-28.02 86.34-28.02 86.78-31.64 101.08-31.64 101.66-34.95 106.02-34.95 105.45-31.64 120.45-31.64ZM111.76-19.11L112.07-21.71 93.67-21.71 93.36-19.11 111.76-19.11ZM111.1-13.06L111.41-15.8 92.96-15.8 92.65-13.06 111.1-13.06ZM110.48-7.06L110.75-9.8 92.26-9.8 91.9-7.06 110.48-7.06ZM109.82-1.06L110.13-3.79 91.55-3.79 91.2-1.06 109.82-1.06ZM129.96 3.18Q127.35 3 125.23 1.9L125.23 1.9 125.72-2.07Q126.96-1.5 128.63-1.01L128.63-1.01 128.99-0.93Q129.21-0.93 129.29-1.08 129.38-1.24 129.47-1.63L129.47-1.63 130.62-11.52 125.9-10.19 126.47-14.56Q128.72-15 131.15-15.75L131.15-15.75 132.12-24.05 127.44-24.05 127.93-27.84 132.56-27.84 133.4-34.77 137.41-34.77 136.58-27.84 140.11-27.84 139.66-24.05 136.13-24.05 135.3-17.03Q135.78-17.21 136.24-17.36 136.71-17.52 137.11-17.65L137.11-17.65 139-18.31 138.78-16.33Q143.37-18.58 146.59-21.31L146.59-21.31 140.24-21.31 140.64-24.67 144.78-24.67 143.5-27.84 147.3-27.84 148.53-24.67 150.52-24.67 151.05-29.17Q147.87-28.95 141.83-28.68L141.83-28.68 142.27-32.26Q153.39-32.74 163.8-33.8L163.8-33.8 163.4-30.09Q160.58-29.83 159.21-29.74L159.21-29.74 154.98-29.39 154.45-24.67 156.3-24.67 158.15-28.37 162.08-28.37 160.23-24.67 164.42-24.67 164.02-21.31 157.4-21.31Q160.98-18.31 165.3-15.71L165.3-15.71 162.57-13.11Q158.11-16.11 153.96-20.56L153.96-20.56 153.3-15.09 149.46-15.09 150.03-20.34Q146.06-16.19 140.37-13.28L140.37-13.28 138.61-14.87 138.52-14.03Q137.24-13.55 134.77-12.75L134.77-12.75 133.31-0.31Q133.09 1.41 132.23 2.34 131.37 3.27 129.96 3.18L129.96 3.18ZM161.73-10.15L160.36 2.87 138.61 2.87 140.33-11.12Q140.5-12.49 141.43-13.28 142.36-14.08 143.77-14.08L143.77-14.08 158.6-14.08Q160.14-14.08 160.96-13.26 161.77-12.44 161.77-10.9L161.77-10.9Q161.77-10.41 161.73-10.15L161.73-10.15ZM148.71-7.33L149.06-10.63 143.9-10.63 143.5-7.33 148.71-7.33ZM152.28-7.33L157.58-7.33 157.93-10.63 152.59-10.63 152.28-7.33ZM148-0.57L148.36-4.15 143.15-4.15 142.75-0.57 148-0.57ZM157.23-4.15L151.93-4.15 151.58-0.57 156.83-0.57 157.23-4.15ZM178.64-23.48L206.97-23.48 206.49-19.37 178.11-19.37 177.19-12.18Q176.48-7.19 175.51-3.51 174.54 0.18 172.82 3.4L172.82 3.4 168.63 2.12Q170.35-1.41 171.36-4.68L171.36-4.68Q172.29-7.85 172.82-12.49L172.82-12.49 174.76-28.2Q174.98-30.32 175.71-31.18 176.44-32.04 178.25-32.12L178.25-32.12Q180.54-32.26 181.42-32.35L181.42-32.35 186.06-32.65Q191.35-33.01 197-33.49L197-33.49 205.43-34.24 204.77-29.96Q202.6-29.74 197.57-29.39L197.57-29.39 187.34-28.64 182.7-28.29 179.22-28.07 178.64-23.48ZM203.53-9.97L202.12 2.34 178.86 2.34 180.45-10.5Q180.67-12.89 181.8-13.9 182.92-14.92 185.17-14.92L185.17-14.92 199.38-14.92Q201.41-14.92 202.49-13.86 203.58-12.8 203.58-10.86L203.58-10.86Q203.58-10.28 203.53-9.97L203.53-9.97ZM184.91-10.99L183.89-1.63 198.15-1.63 199.12-10.99 184.91-10.99ZM245.07-17.34L244.06-19.37Q231.57-18.45 218.51-18.22L218.51-18.22Q216.96-18.22 216.1-18.8 215.24-19.37 215.24-20.39L215.24-20.39Q215.24-21.71 216.78-23.12L216.78-23.12Q223.8-29.79 228.13-34.95L228.13-34.95 233.86-34.95Q228.61-28.33 222.04-22.37L222.04-22.37Q230.2-22.42 242.11-23.34L242.11-23.34 238.36-31.07 243.04-31.07 250.01-17.34 245.07-17.34ZM246-10.46L244.5 2.6 215.46 2.6 217.09-10.41Q217.53-14.43 221.42-14.43L221.42-14.43 242.51-14.43Q246.04-14.43 246.04-11.25L246.04-11.25Q246.04-10.72 246-10.46L246-10.46ZM221.64-10.55L220.49-1.46 240.26-1.46 241.36-10.55 221.64-10.55Z" transform="translate(-1.2799999713897705, 34.95000076293945)"></path></g><g><path d="M12.31 1.59L1.28 1.59 5.43-32.43 10.5-32.43 9.36-22.99 15.4-22.99Q19.99-22.99 22.28-20.87 24.58-18.75 24.58-14.61L24.58-14.61Q24.58-13.55 24.45-12.4L24.45-12.4 24.05-9.05Q22.77 1.59 12.31 1.59L12.31 1.59ZM6.93-3.13L12.89-3.13Q18.18-3.13 18.89-8.91L18.89-8.91 19.33-12.53Q19.42-13.41 19.42-13.77L19.42-13.77Q19.42-18.27 14.83-18.27L14.83-18.27 8.78-18.27 6.93-3.13ZM35.58-26.3L29.8-26.3 30.46-31.6 36.24-31.6 35.58-26.3ZM34.88-22.99L31.83 1.59 26.76 1.59 29.8-22.99 34.88-22.99ZM41.77 1.59L36.7 1.59 40.85-32.43 45.92-32.43 41.77 1.59ZM51.59 1.59L46.51 1.59 50.66-32.43 55.73-32.43 51.59 1.59ZM56.72-9L57.12-12.36Q58.4-22.99 68.5-22.99L68.5-22.99 74.28-22.99 75.43-32.43 80.5-32.43 76.36 1.59 65.72 1.59Q56.59 1.59 56.59-6.8L56.59-6.8Q56.59-7.81 56.72-9L56.72-9ZM66.29-3.13L71.85-3.13 73.71-18.36 67.93-18.36Q62.94-18.36 62.24-12.49L62.24-12.49 61.79-8.87Q61.71-7.99 61.71-7.59L61.71-7.59Q61.71-3.13 66.29-3.13L66.29-3.13ZM120.45-31.64L120.01-28.02 104.83-28.02 104.39-25.24 112.64-25.24Q114.63-25.24 115.6-24.27 116.57-23.3 116.35-21.36L116.35-21.36 113.88-1.06 119.66-1.06 119.26 2.52 82.02 2.52 82.42-1.06 86.96-1.06 89.43-21.58Q89.65-23.26 90.67-24.25 91.68-25.24 93.36-25.24L93.36-25.24 100.02-25.24 100.46-28.02 86.34-28.02 86.78-31.64 101.08-31.64 101.66-34.95 106.02-34.95 105.45-31.64 120.45-31.64ZM111.76-19.11L112.07-21.71 93.67-21.71 93.36-19.11 111.76-19.11ZM111.1-13.06L111.41-15.8 92.96-15.8 92.65-13.06 111.1-13.06ZM110.48-7.06L110.75-9.8 92.26-9.8 91.9-7.06 110.48-7.06ZM109.82-1.06L110.13-3.79 91.55-3.79 91.2-1.06 109.82-1.06ZM129.96 3.18Q127.35 3 125.23 1.9L125.23 1.9 125.72-2.07Q126.96-1.5 128.63-1.01L128.63-1.01 128.99-0.93Q129.21-0.93 129.29-1.08 129.38-1.24 129.47-1.63L129.47-1.63 130.62-11.52 125.9-10.19 126.47-14.56Q128.72-15 131.15-15.75L131.15-15.75 132.12-24.05 127.44-24.05 127.93-27.84 132.56-27.84 133.4-34.77 137.41-34.77 136.58-27.84 140.11-27.84 139.66-24.05 136.13-24.05 135.3-17.03Q135.78-17.21 136.24-17.36 136.71-17.52 137.11-17.65L137.11-17.65 139-18.31 138.78-16.33Q143.37-18.58 146.59-21.31L146.59-21.31 140.24-21.31 140.64-24.67 144.78-24.67 143.5-27.84 147.3-27.84 148.53-24.67 150.52-24.67 151.05-29.17Q147.87-28.95 141.83-28.68L141.83-28.68 142.27-32.26Q153.39-32.74 163.8-33.8L163.8-33.8 163.4-30.09Q160.58-29.83 159.21-29.74L159.21-29.74 154.98-29.39 154.45-24.67 156.3-24.67 158.15-28.37 162.08-28.37 160.23-24.67 164.42-24.67 164.02-21.31 157.4-21.31Q160.98-18.31 165.3-15.71L165.3-15.71 162.57-13.11Q158.11-16.11 153.96-20.56L153.96-20.56 153.3-15.09 149.46-15.09 150.03-20.34Q146.06-16.19 140.37-13.28L140.37-13.28 138.61-14.87 138.52-14.03Q137.24-13.55 134.77-12.75L134.77-12.75 133.31-0.31Q133.09 1.41 132.23 2.34 131.37 3.27 129.96 3.18L129.96 3.18ZM161.73-10.15L160.36 2.87 138.61 2.87 140.33-11.12Q140.5-12.49 141.43-13.28 142.36-14.08 143.77-14.08L143.77-14.08 158.6-14.08Q160.14-14.08 160.96-13.26 161.77-12.44 161.77-10.9L161.77-10.9Q161.77-10.41 161.73-10.15L161.73-10.15ZM148.71-7.33L149.06-10.63 143.9-10.63 143.5-7.33 148.71-7.33ZM152.28-7.33L157.58-7.33 157.93-10.63 152.59-10.63 152.28-7.33ZM148-0.57L148.36-4.15 143.15-4.15 142.75-0.57 148-0.57ZM157.23-4.15L151.93-4.15 151.58-0.57 156.83-0.57 157.23-4.15ZM178.64-23.48L206.97-23.48 206.49-19.37 178.11-19.37 177.19-12.18Q176.48-7.19 175.51-3.51 174.54 0.18 172.82 3.4L172.82 3.4 168.63 2.12Q170.35-1.41 171.36-4.68L171.36-4.68Q172.29-7.85 172.82-12.49L172.82-12.49 174.76-28.2Q174.98-30.32 175.71-31.18 176.44-32.04 178.25-32.12L178.25-32.12Q180.54-32.26 181.42-32.35L181.42-32.35 186.06-32.65Q191.35-33.01 197-33.49L197-33.49 205.43-34.24 204.77-29.96Q202.6-29.74 197.57-29.39L197.57-29.39 187.34-28.64 182.7-28.29 179.22-28.07 178.64-23.48ZM203.53-9.97L202.12 2.34 178.86 2.34 180.45-10.5Q180.67-12.89 181.8-13.9 182.92-14.92 185.17-14.92L185.17-14.92 199.38-14.92Q201.41-14.92 202.49-13.86 203.58-12.8 203.58-10.86L203.58-10.86Q203.58-10.28 203.53-9.97L203.53-9.97ZM184.91-10.99L183.89-1.63 198.15-1.63 199.12-10.99 184.91-10.99ZM245.07-17.34L244.06-19.37Q231.57-18.45 218.51-18.22L218.51-18.22Q216.96-18.22 216.1-18.8 215.24-19.37 215.24-20.39L215.24-20.39Q215.24-21.71 216.78-23.12L216.78-23.12Q223.8-29.79 228.13-34.95L228.13-34.95 233.86-34.95Q228.61-28.33 222.04-22.37L222.04-22.37Q230.2-22.42 242.11-23.34L242.11-23.34 238.36-31.07 243.04-31.07 250.01-17.34 245.07-17.34ZM246-10.46L244.5 2.6 215.46 2.6 217.09-10.41Q217.53-14.43 221.42-14.43L221.42-14.43 242.51-14.43Q246.04-14.43 246.04-11.25L246.04-11.25Q246.04-10.72 246-10.46L246-10.46ZM221.64-10.55L220.49-1.46 240.26-1.46 241.36-10.55 221.64-10.55Z" transform="translate(-1.2799999713897705, 34.95000076293945)"></path></g></g></g></g> <!----></g></svg>
